<svg width="1813" height="394" viewBox="0 0 1813 394" fill="none" xmlns="http://www.w3.org/2000/svg">
<path d="M376.462 393.188H453.77C455.642 393.184 457.464 392.574 458.973 391.446C460.482 390.318 461.6 388.73 462.164 386.913C462.728 385.096 462.71 383.143 462.112 381.337C461.515 379.531 460.368 377.965 458.839 376.866L268.929 240.822C268.271 240.366 267.513 240.08 266.722 239.991C265.931 239.901 265.13 240.01 264.389 240.308C263.649 240.606 262.991 241.083 262.474 241.699C261.956 242.315 261.594 243.051 261.42 243.842L242.947 334.13C242.723 335.272 242.896 336.457 243.438 337.483C243.979 338.508 244.854 339.31 245.913 339.749L374.622 392.806C375.202 393.064 375.829 393.195 376.462 393.188Z" fill="url(#paint0_linear_500_466)"/>
<path d="M102.883 393.183H22.9406C21.1423 393.247 19.3733 392.711 17.9064 391.658C16.4394 390.605 15.356 389.094 14.8232 387.357C14.2904 385.62 14.3379 383.755 14.9582 382.048C15.5785 380.341 16.7373 378.888 18.2559 377.913L210.934 240.821C211.597 240.365 212.359 240.08 213.155 239.991C213.952 239.901 214.757 240.01 215.503 240.308C216.248 240.605 216.909 241.082 217.43 241.697C217.951 242.312 218.315 243.047 218.49 243.837L236.965 334.01C237.201 335.146 237.035 336.329 236.497 337.354C235.958 338.38 235.081 339.182 234.018 339.622L104.697 392.801C104.126 393.059 103.508 393.189 102.883 393.183Z" fill="url(#paint1_linear_500_466)"/>
<path d="M284.782 74.5501L189.647 72.2772C188.882 72.2725 188.129 72.4697 187.465 72.8488C186.8 73.2278 186.247 73.7755 185.861 74.4366L0.588358 386.595C0.203657 387.262 0.000767522 388.018 2.17336e-06 388.788C-0.000763175 389.558 0.200622 390.315 0.583997 390.982C0.967371 391.65 1.51928 392.205 2.18445 392.592C2.84961 392.979 3.60469 393.184 4.37408 393.187H101.099C101.862 393.203 102.615 393.015 103.281 392.642C103.946 392.269 104.5 391.725 104.885 391.065L288.492 81.1418C288.886 80.4825 289.099 79.7309 289.109 78.963C289.118 78.195 288.925 77.4379 288.549 76.7687C288.172 76.0994 287.625 75.5418 286.964 75.1522C286.302 74.7626 285.55 74.5548 284.782 74.5501Z" fill="url(#paint2_linear_500_466)"/>
<path d="M151.827 0H248.35C249.112 0.00290217 249.86 0.203367 250.522 0.581637C251.184 0.959907 251.737 1.50316 252.128 2.15894L479.289 386.522C479.692 387.191 479.91 387.954 479.92 388.735C479.931 389.516 479.734 390.286 479.349 390.965C478.964 391.644 478.405 392.208 477.731 392.599C477.056 392.99 476.29 393.193 475.511 393.188H379.101C378.339 393.185 377.591 392.985 376.929 392.607C376.267 392.228 375.714 391.685 375.323 391.029L148.049 6.66617C147.658 5.99569 147.45 5.23418 147.446 4.45775C147.441 3.68132 147.64 2.91725 148.023 2.24217C148.405 1.56708 148.958 1.00472 149.626 0.611227C150.293 0.217731 151.052 0.00684856 151.827 0Z" fill="url(#paint3_linear_500_466)"/>
<path d="M187.921 72.2771L239.961 162.105L228.244 182.138L187.921 72.2771Z" fill="#0057D6"/>
<path d="M375.842 393.188L300.673 263.089L352.852 383.652L375.842 393.188Z" fill="#0057D6"/>
<path d="M104.079 393.188L173.465 271.762L125.007 385.026L104.079 393.188Z" fill="#0057D6"/>
<path d="M480.153 164.595C487.273 149.756 498.401 137.199 512.284 128.342C525.874 119.868 541.613 115.466 557.633 115.66C570.648 115.395 583.523 118.392 595.081 124.377C605.357 129.573 614.039 137.445 620.208 147.161V118.54H682.297V320.868H620.208V292.21C613.929 301.88 605.245 309.757 595.006 315.069C583.446 321.05 570.573 324.046 557.558 323.786C541.649 323.921 526.042 319.451 512.621 310.916C498.602 301.991 487.357 289.332 480.153 274.364C472.377 257.116 468.356 238.415 468.356 219.499C468.356 200.582 472.377 181.881 480.153 164.633V164.595ZM607.177 183.302C603.123 179.07 598.256 175.699 592.867 173.39C587.479 171.081 581.679 169.882 575.816 169.865C569.953 169.847 564.147 171.012 558.745 173.289C553.343 175.565 548.456 178.907 544.376 183.115C535.788 191.944 531.494 204.091 531.494 219.555C531.494 235.018 535.788 247.29 544.376 256.369C548.405 260.643 553.264 264.053 558.656 266.389C564.048 268.725 569.859 269.939 575.736 269.956C581.613 269.974 587.432 268.795 592.838 266.491C598.243 264.187 603.122 260.806 607.177 256.556C615.864 247.477 620.208 235.206 620.208 219.742C620.208 204.278 615.864 192.069 607.177 183.115V183.302Z" fill="black"/>
<path d="M819 125.297C830.144 118.843 842.851 115.508 855.763 115.648V181.541H838.501C822.794 181.541 811.02 184.87 803.18 191.528C795.339 198.186 791.419 209.9 791.419 226.671V320.911H728.555V117.863H791.419V151.654C798.421 140.869 807.864 131.846 819 125.297Z" fill="black"/>
<path d="M1000.32 267.774V320.911H968.098C945.193 320.911 927.315 315.351 914.462 304.232C901.61 293.113 895.248 274.972 895.375 249.809V168.42H870.218V116.38H895.375V66.4949H958.63V116.38H1000.09V168.42H958.478V250.528C958.246 252.915 958.524 255.324 959.293 257.598C960.063 259.872 961.307 261.96 962.944 263.727C967.202 266.822 972.459 268.262 977.718 267.774H1000.32Z" fill="black"/>
<path d="M1353.68 138.611C1368.67 153.891 1376.16 175.146 1376.16 202.379V320.911H1314.27V210.593C1314.27 197.502 1310.82 187.412 1303.93 180.248C1296.04 173.39 1285.94 169.62 1275.5 169.634C1265.05 169.647 1254.96 173.444 1247.09 180.323C1240.2 187.487 1236.75 197.577 1236.75 210.669V320.836H1174.83V210.593C1174.83 197.502 1171.38 187.412 1164.49 180.248C1156.6 173.328 1146.46 169.514 1135.98 169.514C1125.49 169.514 1115.36 173.328 1107.47 180.248C1100.57 187.412 1097.13 197.502 1097.13 210.593V320.761H1035.01V117.906H1097.24V143.338C1103.71 134.708 1112.19 127.782 1121.93 123.157C1132.7 118.042 1144.51 115.476 1156.43 115.655C1170.65 115.419 1184.7 118.801 1197.27 125.483C1209.13 131.916 1218.9 141.63 1225.4 153.465C1232.61 142.171 1242.46 132.809 1254.1 126.195C1266.12 119.194 1279.8 115.554 1293.7 115.655C1318.8 115.68 1338.79 123.332 1353.68 138.611Z" fill="black"/>
<path d="M1612.18 234.574H1470.37C1471.35 247.043 1475.45 256.656 1482.66 263.413C1489.82 270.034 1499.32 273.606 1509.12 273.363C1524.77 273.363 1535.65 266.842 1541.75 253.8H1608.44C1605.09 266.995 1598.77 279.27 1589.95 289.709C1580.85 300.466 1569.38 309.014 1556.42 314.695C1542.23 320.905 1526.86 324.006 1511.35 323.784C1492.7 324.119 1474.28 319.742 1457.82 311.067C1442.33 302.735 1429.61 290.147 1421.18 274.822C1412.1 257.874 1407.56 238.904 1407.99 219.725C1407.55 200.555 1412.03 181.588 1421 164.59C1429.35 149.264 1442.02 136.671 1457.48 128.345C1474.06 119.659 1492.6 115.295 1511.35 115.665C1529.7 115.328 1547.84 119.573 1564.09 128.009C1579.31 136.023 1591.86 148.237 1600.2 163.169C1609.14 179.515 1613.62 197.887 1613.2 216.471C1613.22 222.52 1612.88 228.565 1612.18 234.574ZM1549.16 200.125C1549.36 195.352 1548.48 190.594 1546.58 186.204C1544.67 181.814 1541.8 177.904 1538.16 174.764C1530.49 168.359 1520.7 165 1510.67 165.338C1501.03 165.072 1491.62 168.29 1484.21 174.391C1476.67 181.028 1471.9 190.2 1470.82 200.125H1549.16Z" fill="black"/>
<path d="M1682.68 314.585C1669.76 309.274 1658.45 300.736 1649.83 289.801C1641.94 279.583 1637.25 267.284 1636.36 254.438H1697.99C1698.3 257.819 1699.34 261.093 1701.04 264.036C1702.74 266.979 1705.07 269.52 1707.85 271.484C1714.11 275.957 1721.68 278.244 1729.38 277.989C1735.71 278.375 1742.01 276.794 1747.4 273.465C1749.38 272.201 1751.01 270.457 1752.13 268.397C1753.25 266.338 1753.82 264.03 1753.8 261.69C1753.81 258.874 1752.94 256.125 1751.31 253.822C1749.67 251.518 1747.36 249.775 1744.69 248.831C1735.11 244.953 1725.21 241.865 1715.12 239.598C1702.73 236.849 1690.55 233.277 1678.65 228.906C1668.91 225.151 1660.26 219.049 1653.48 211.15C1646.44 203.076 1642.9 192.123 1642.9 178.366C1642.82 167.07 1646.19 156.016 1652.58 146.667C1659.69 136.579 1669.56 128.72 1681.02 124.013C1695.17 118.138 1710.4 115.297 1725.73 115.677C1751.24 115.677 1771.31 121.908 1785.94 134.368C1793.3 140.654 1799.33 148.32 1803.71 156.929C1808.08 165.537 1810.7 174.919 1811.41 184.534H1753.8C1753.44 181.281 1752.44 178.132 1750.84 175.269C1749.25 172.407 1747.09 169.889 1744.51 167.862C1738.54 163.522 1731.27 161.345 1723.88 161.694C1717.99 161.321 1712.13 162.771 1707.1 165.843C1705.25 167.115 1703.74 168.828 1702.72 170.826C1701.7 172.824 1701.2 175.044 1701.27 177.282C1701.28 180.141 1702.18 182.926 1703.85 185.26C1705.51 187.593 1707.85 189.363 1710.56 190.328C1719.91 194.187 1729.63 197.093 1739.58 199.001C1752.07 202.083 1764.38 205.903 1776.42 210.44C1786.12 214.334 1794.7 220.549 1801.4 228.533C1809.05 238.068 1813.05 249.988 1812.69 262.176C1812.84 273.538 1809.32 284.649 1802.64 293.876C1795.27 303.7 1785.29 311.286 1773.82 315.782C1759.99 321.348 1745.16 324.07 1730.24 323.781C1713.92 324.057 1697.71 320.924 1682.68 314.585Z" fill="black"/>
<defs>
<linearGradient id="paint0_linear_500_466" x1="253.272" y1="307.143" x2="307.298" y2="314.339" gradientUnits="userSpaceOnUse">
<stop stop-color="#108FF1"/>
<stop offset="1" stop-color="#236AF6"/>
</linearGradient>
<linearGradient id="paint1_linear_500_466" x1="226.802" y1="307.248" x2="172.076" y2="314.616" gradientUnits="userSpaceOnUse">
<stop stop-color="#108FF1"/>
<stop offset="1" stop-color="#236AF6"/>
</linearGradient>
<linearGradient id="paint2_linear_500_466" x1="72.2899" y1="370.192" x2="190.645" y2="147.051" gradientUnits="userSpaceOnUse">
<stop stop-color="#108FF1"/>
<stop offset="1" stop-color="#236AF6"/>
</linearGradient>
<linearGradient id="paint3_linear_500_466" x1="205.774" y1="5.52986" x2="434.202" y2="407.985" gradientUnits="userSpaceOnUse">
<stop stop-color="#108FF1"/>
<stop offset="1" stop-color="#236AF6"/>
</linearGradient>
</defs>
</svg>
